<svg id="sportsman-stillparts" xmlns="http://www.w3.org/2000/svg" viewBox="0 0 192 192"><defs><style>.cls-1{fill:#f6cdbe;}.cls-2{fill:#112b0f;}.cls-3{fill:#dcdb29;}.cls-4{fill:#316734;}</style></defs><title>stillparts</title><path class="cls-1" d="M98,65.37v-.64a15,15,0,0,0-30,0V72H98Z"/><path class="cls-2" d="M86,62a2,2,0,1,0,2-2A2,2,0,0,0,86,62Z"/><path class="cls-2" d="M76,62a2,2,0,1,0,2-2A2,2,0,0,0,76,62Z"/><path class="cls-2" d="M85,68H81a1,1,0,1,1,0-2h4a1,1,0,1,1,0,2Z"/><path class="cls-3" d="M51.27,72a9.22,9.22,0,0,0-9.1,7.29A8.7,8.7,0,0,0,42,81v9H68V72Z"/><path class="cls-4" d="M102.87,164H90v22h12.87a11,11,0,1,0,0-22Z"/><path class="cls-4" d="M90,163.75V128H68v47.29a11,11,0,0,0,2.23,6.32,11.18,11.18,0,0,0,2.15,2.14A10.83,10.83,0,0,0,79,186H90V163.75Z"/><path class="cls-4" d="M162,106H98v22h53.29a11,11,0,0,0,6.32-2.23,11.18,11.18,0,0,0,2.14-2.15A10.86,10.86,0,0,0,162,117V106Z"/><polygon class="cls-4" points="96.69 72 68.04 72 68.04 84.8 68.04 90.55 68 90.55 68 122.14 68.04 122.14 68.04 127.93 68 128 90 128 97.97 128 98 128 98 122.14 98 106 98 90.55 98 90 98 72 96.69 72"/></svg>